# xmcd
#
# Track frame offsets:
#	150
#	19490
#	41255
#	63608
#	91599
#	115282
#	151676
#	175344
#	196527
#	226375
#	242296
#
# Disc length: 3614 seconds
#
# Revision: 0
# Processed by: cddbd v1.5.1PL0 Copyright (c) Steve Scherf et al.
# Submitted via: dBpowerAMP V4.0
#
DISCID=790e1c0b
DTITLE=T. Blues Mob - Live in Denmark
DYEAR=2002
DGENRE=Blues
TTITLE0=Hideaway
TTITLE1=Youu better leave me alone
TTITLE2=I`m gonna leave this town
TTITLE3=Tell me why
TTITLE4=You dont know what love is
TTITLE5=Bagstage boggie
TTITLE6=Dragon
TTITLE7=Blusy Q
TTITLE8=You´re killing me
TTITLE9=At the station
TTITLE10=Stormy monday
EXTD=
EXTT0=
EXTT1=
EXTT2=
EXTT3=
EXTT4=
EXTT5=
EXTT6=
EXTT7=
EXTT8=
EXTT9=
EXTT10=
PLAYORDER=
